<?xml version="1.0" standalone="no"?>
<!DOCTYPE svg PUBLIC "-//W3C//DTD SVG 20010904//EN"
 "http://www.w3.org/TR/2001/REC-SVG-20010904/DTD/svg10.dtd">
<svg version="1.0" xmlns="http://www.w3.org/2000/svg"
 width="1024.000000pt" height="1024.000000pt" viewBox="0 0 1024.000000 1024.000000"
 preserveAspectRatio="xMidYMid meet">

<g transform="translate(0.000000,1024.000000) scale(0.100000,-0.100000)"
fill="#000000" stroke="none">
<path d="M4615 7090 c-242 -25 -407 -65 -500 -121 -52 -32 -80 -41 -142 -49
-248 -32 -554 -125 -786 -240 -481 -239 -790 -568 -932 -994 -47 -139 -66
-257 -66 -413 0 -207 34 -359 115 -521 215 -428 696 -676 1456 -752 209 -21
599 -23 875 -6 1062 67 2022 283 2530 568 327 184 510 394 587 673 19 69 22
105 22 255 0 158 -3 184 -27 275 -35 129 -127 315 -213 428 -363 482 -1066
815 -1808 857 -94 5 -209 17 -256 26 -98 18 -717 28 -855 14z m498 -319 c153
-40 318 -135 483 -279 111 -98 208 -223 274 -357 53 -107 96 -260 85 -304 -22
-89 -127 -95 -193 -11 -10 14 -49 81 -86 150 -90 165 -137 237 -229 346 -120
143 -297 284 -463 367 -81 41 -101 59 -81 75 43 36 104 40 210 13z m1113 -89
c182 -63 393 -280 483 -496 39 -95 66 -213 57 -250 -18 -73 -99 -99 -167 -53
-28 19 -40 39 -70 122 -69 194 -119 292 -216 427 -54 75 -148 172 -207 214
-68 48 14 72 120 36z m-2216 -116 c242 -37 481 -165 693 -373 44 -43 104 -108
133 -144 116 -145 214 -363 201 -446 -12 -70 -64 -113 -121 -99 -39 10 -98 68
-131 128 -78 145 -221 327 -338 428 -202 177 -443 301 -744 386 -148 41 -170
55 -127 77 29 15 143 44 199 50 69 9 145 6 235 -7z m-554 -496 c397 -102 743
-435 877 -845 41 -126 47 -183 47 -440 0 -230 -1 -243 -22 -285 -48 -94 -142
-128 -375 -137 -312 -12 -658 44 -893 144 -316 135 -504 339 -556 602 -22 112
-15 294 16 401 87 302 332 537 604 581 73 11 213 2 302 -21z"/>
</g>
</svg>
